<?xml version="1.0" encoding="UTF-8"?>
<svg id="Capa_1" xmlns="http://www.w3.org/2000/svg" version="1.1" viewBox="0 0 1920 836">
  <!-- Generator: Adobe Illustrator 29.8.1, SVG Export Plug-In . SVG Version: 2.1.1 Build 2)  -->
  <g>
    <path d="M189.91,317.38c36.63,0,68.43-13.01,90.6-34.7v69.87c-26.99,14.94-58.31,22.65-91.08,22.65C84.85,375.21,1,291.36,1,187.75S84.85.29,189.42.29c32.77,0,64.09,7.71,91.08,22.65v69.88c-22.17-21.69-53.97-34.7-90.6-34.7-72.29,0-127.7,55.9-127.7,129.63s55.42,129.63,127.7,129.63Z"/>
    <path d="M482.91,273.05v-137.83h56.86v141.2c0,58.79-43.85,98.79-103.61,98.79s-103.13-40-103.13-98.79v-141.2h56.86v137.83c0,33.25,17.83,52.04,46.26,52.04s46.74-18.79,46.74-52.04Z"/>
    <path d="M838.08,135.22v234.2h-56.86v-34.21c-14.46,23.61-45.3,40-77.1,40-65.06,0-116.62-53.97-116.62-122.89s51.57-122.89,116.62-122.89c31.81,0,62.65,16.39,77.1,40v-34.21h56.86ZM713.75,325.09c40,0,70.36-31.32,70.36-72.77s-30.36-72.77-70.36-72.77-69.87,31.32-69.87,72.77,30.36,72.77,69.87,72.77Z"/>
    <path d="M963.86,135.22v234.2h-56.86v-234.2h56.86ZM983.14,167.99c0-21.2,16.87-38.07,38.07-38.07s38.07,16.87,38.07,38.07-16.87,38.07-38.07,38.07-38.07-16.87-38.07-38.07Z"/>
    <path d="M1086.74,135.22h33.25V54.74h56.86v80.48h47.23v49.64h-47.23v184.57h-56.86v-184.57h-33.25v-49.64Z"/>
    <path d="M1433.23,285.57l41.93,26.99c-22.65,40.48-62.17,62.65-107.46,62.65-66.02,0-121.44-53.49-121.44-122.89s55.42-122.89,120.48-122.89c69.39,0,118.07,54.46,115.66,136.86h-182.64c5.78,37.11,34.21,60.24,67.95,60.24s50.6-14.94,65.54-40.96ZM1302.16,227.26h123.85c-3.86-26.5-24.58-49.64-59.28-49.64-30.36,0-55.42,19.27-64.57,49.64Z"/>
    <path d="M1511.31,135.22h33.25V54.74h56.86v80.48h47.22v49.64h-47.22v184.57h-56.86v-184.57h-33.25v-49.64Z"/>
    <path d="M1794.67,129.44c67.46,0,124.33,53.49,124.33,122.89s-56.86,122.89-124.33,122.89-123.85-53.49-123.85-122.89,56.38-122.89,123.85-122.89ZM1794.67,325.09c40,0,70.36-31.32,70.36-72.77s-30.36-72.77-70.36-72.77-69.88,31.32-69.88,72.77,30.36,72.77,69.88,72.77Z"/>
  </g>
  <g>
    <path d="M387.5,829.93h-60.24v-363.36h60.24v363.36Z"/>
    <path d="M518.09,629.94c14.94-23.61,45.78-40,77.59-40,65.06,0,116.62,53.97,116.62,122.89s-51.56,122.89-116.62,122.89c-31.8,0-62.65-16.38-77.59-40v34.21h-56.86v-411.93h56.86v211.94ZM585.56,640.06c-39.52,0-69.87,31.32-69.87,72.77s30.36,72.77,69.87,72.77,70.36-31.33,70.36-72.77-30.36-72.77-70.36-72.77Z"/>
    <path d="M935.42,746.08l41.93,26.99c-22.65,40.48-62.17,62.65-107.46,62.65-66.02,0-121.44-53.49-121.44-122.89s55.42-122.89,120.48-122.89c69.39,0,118.07,54.46,115.66,136.86h-182.64c5.78,37.11,34.21,60.24,67.95,60.24s50.6-14.94,65.54-40.96ZM804.34,687.77h123.85c-3.86-26.5-24.58-49.64-59.28-49.64-30.36,0-55.42,19.27-64.57,49.64Z"/>
    <path d="M1092.53,595.72v234.2h-56.86v-234.2h56.86ZM1111.8,628.49c0-21.2,16.86-38.07,38.07-38.07s38.07,16.87,38.07,38.07-16.87,38.07-38.07,38.07-38.07-16.87-38.07-38.07Z"/>
    <path d="M1226.5,501.27c0-19.28,16.38-35.18,35.18-35.18,19.76,0,35.66,15.9,35.66,35.18s-15.9,35.18-35.66,35.18-35.18-15.42-35.18-35.18ZM1290.11,595.72v234.2h-56.86v-234.2h56.86Z"/>
    <path d="M1592.74,595.72v234.2h-56.86v-34.21c-14.46,23.62-45.3,40-77.1,40-65.06,0-116.62-53.98-116.62-122.89s51.57-122.89,116.62-122.89c31.81,0,62.65,16.39,77.1,40v-34.21h56.86ZM1468.41,785.59c40,0,70.36-31.33,70.36-72.77s-30.36-72.77-70.36-72.77-69.87,31.32-69.87,72.77,30.36,72.77,69.87,72.77Z"/>
  </g>
</svg>