<?xml version="1.0" encoding="UTF-8"?>
<svg id="Capa_1" xmlns="http://www.w3.org/2000/svg" version="1.1" viewBox="0 0 1920 226">
  <!-- Generator: Adobe Illustrator 29.8.1, SVG Export Plug-In . SVG Version: 2.1.1 Build 2)  -->
  <path d="M109.21,192.78c20.98,0,39.2-7.45,51.9-19.87v40.03c-15.46,8.56-33.4,12.97-52.17,12.97C49.03,225.9,1,177.87,1,118.52S49.03,11.14,108.93,11.14c18.77,0,36.71,4.42,52.17,12.97v40.03c-12.7-12.42-30.92-19.88-51.9-19.88-41.41,0-73.15,32.02-73.15,74.26s31.75,74.26,73.15,74.26Z"/>
  <path d="M277.05,167.38v-78.95h32.57v80.88c0,33.68-25.12,56.59-59.35,56.59s-59.07-22.91-59.07-56.59v-80.88h32.57v78.95c0,19.05,10.21,29.81,26.5,29.81s26.78-10.77,26.78-29.81Z"/>
  <path d="M480.5,88.43v134.16h-32.57v-19.6c-8.28,13.53-25.95,22.91-44.17,22.91-37.27,0-66.8-30.92-66.8-70.39s29.54-70.39,66.8-70.39c18.22,0,35.89,9.39,44.17,22.91v-19.6h32.57ZM409.28,197.19c22.91,0,40.3-17.94,40.3-41.68s-17.39-41.68-40.3-41.68-40.03,17.94-40.03,41.68,17.39,41.68,40.03,41.68Z"/>
  <path d="M552.55,88.43v134.16h-32.57V88.43h32.57ZM563.6,107.2c0-12.14,9.66-21.81,21.81-21.81s21.81,9.66,21.81,21.81-9.66,21.81-21.81,21.81-21.81-9.66-21.81-21.81Z"/>
  <path d="M622.94,88.43h19.05v-46.1h32.57v46.1h27.05v28.43h-27.05v105.73h-32.57v-105.73h-19.05v-28.43Z"/>
  <path d="M821.42,174.56l24.02,15.46c-12.97,23.19-35.61,35.89-61.56,35.89-37.82,0-69.56-30.64-69.56-70.39s31.75-70.39,69.01-70.39c39.75,0,67.63,31.19,66.25,78.4h-104.62c3.31,21.26,19.6,34.51,38.92,34.51s28.99-8.56,37.54-23.46ZM746.34,141.16h70.94c-2.21-15.18-14.08-28.43-33.95-28.43-17.39,0-31.75,11.04-36.99,28.43Z"/>
  <path d="M866.15,88.43h19.05v-46.1h32.57v46.1h27.05v28.43h-27.05v105.73h-32.57v-105.73h-19.05v-28.43Z"/>
  <path d="M1028.46,85.12c38.65,0,71.22,30.64,71.22,70.39s-32.57,70.39-71.22,70.39-70.94-30.64-70.94-70.39,32.3-70.39,70.94-70.39ZM1028.46,197.19c22.91,0,40.3-17.94,40.3-41.68s-17.39-41.68-40.3-41.68-40.03,17.94-40.03,41.68,17.39,41.68,40.03,41.68Z"/>
  <path d="M1228.6,222.59h-34.51V14.45h34.51v208.14Z"/>
  <path d="M1303.41,108.03c8.56-13.53,26.22-22.91,44.44-22.91,37.27,0,66.8,30.92,66.8,70.39s-29.54,70.39-66.8,70.39c-18.22,0-35.89-9.39-44.44-22.91v19.6h-32.58V.1h32.58v107.93ZM1342.06,113.83c-22.64,0-40.03,17.94-40.03,41.68s17.39,41.68,40.03,41.68,40.3-17.94,40.3-41.68-17.39-41.68-40.3-41.68Z"/>
  <path d="M1542.47,174.56l24.01,15.46c-12.97,23.19-35.61,35.89-61.56,35.89-37.82,0-69.56-30.64-69.56-70.39s31.75-70.39,69.01-70.39c39.75,0,67.63,31.19,66.25,78.4h-104.62c3.31,21.26,19.6,34.51,38.92,34.51s28.99-8.56,37.54-23.46ZM1467.38,141.16h70.94c-2.21-15.18-14.08-28.43-33.95-28.43-17.39,0-31.75,11.04-36.99,28.43Z"/>
  <path d="M1632.46,88.43v134.16h-32.57V88.43h32.57ZM1643.51,107.2c0-12.14,9.66-21.81,21.81-21.81s21.81,9.66,21.81,21.81-9.66,21.81-21.81,21.81-21.81-9.66-21.81-21.81Z"/>
  <path d="M1709.21,34.33c0-11.04,9.38-20.15,20.15-20.15,11.32,0,20.43,9.11,20.43,20.15s-9.11,20.15-20.43,20.15-20.15-8.83-20.15-20.15ZM1745.64,88.43v134.16h-32.57V88.43h32.57Z"/>
  <path d="M1919,88.43v134.16h-32.58v-19.6c-8.28,13.53-25.95,22.91-44.17,22.91-37.27,0-66.8-30.92-66.8-70.39s29.54-70.39,66.8-70.39c18.22,0,35.89,9.39,44.17,22.91v-19.6h32.58ZM1847.78,197.19c22.91,0,40.3-17.94,40.3-41.68s-17.39-41.68-40.3-41.68-40.02,17.94-40.02,41.68,17.39,41.68,40.02,41.68Z"/>
</svg>